<svg width="34" height="17" viewBox="0 0 34 17" fill="none" xmlns="http://www.w3.org/2000/svg">
<path d="M4.59036 16.4047C4.8451 16.7313 5.31639 16.7896 5.64301 16.5349L10.9656 12.3836C11.2922 12.1289 11.3505 11.6576 11.0957 11.331C10.841 11.0044 10.3697 10.9461 10.0431 11.2008L5.31191 14.8908L1.62193 10.1596C1.36719 9.83302 0.895904 9.77475 0.569284 10.0295C0.242665 10.2842 0.184395 10.7555 0.439135 11.0821L4.59036 16.4047ZM32.3303 2.791C32.739 2.8581 33.1248 2.58115 33.1919 2.1724C33.259 1.76366 32.982 1.37791 32.5733 1.31081L32.3303 2.791ZM5.92609 16.0355C6.81645 8.83429 14.9365 -0.0644968 32.3303 2.791L32.5733 1.31081C14.5543 -1.64731 5.45727 7.60297 4.43743 15.8514L5.92609 16.0355Z" fill="#DD4A00"/>
</svg>
